<?xml version="1.0" encoding="UTF-8" standalone="no"?>
<!-- Created with Inkscape (http://www.inkscape.org/) -->

<svg
   xmlns:dc="http://purl.org/dc/elements/1.1/"
   xmlns:cc="http://creativecommons.org/ns#"
   xmlns:rdf="http://www.w3.org/1999/02/22-rdf-syntax-ns#"
   xmlns:svg="http://www.w3.org/2000/svg"
   xmlns="http://www.w3.org/2000/svg"
   xmlns:sodipodi="http://sodipodi.sourceforge.net/DTD/sodipodi-0.dtd"
   xmlns:inkscape="http://www.inkscape.org/namespaces/inkscape"
   width="120.62638"
   height="102.91829"
   id="svg2"
   version="1.1"
   inkscape:version="0.48.3.1 r9886"
   sodipodi:docname="supports2.svg">
  <sodipodi:namedview
     id="base"
     pagecolor="#ffffff"
     bordercolor="#666666"
     borderopacity="1.0"
     inkscape:pageopacity="0.0"
     inkscape:pageshadow="2"
     inkscape:zoom="2.8"
     inkscape:cx="44.466508"
     inkscape:cy="41.298486"
     inkscape:document-units="px"
     inkscape:current-layer="layer1"
     showgrid="false"
     inkscape:window-width="958"
     inkscape:window-height="1061"
     inkscape:window-x="0"
     inkscape:window-y="17"
     inkscape:window-maximized="0"
     fit-margin-top="0"
     fit-margin-left="0"
     fit-margin-right="0"
     fit-margin-bottom="0" />
  <defs
     id="defs4">
    <marker
       inkscape:stockid="StopL"
       orient="auto"
       refY="0"
       refX="0"
       id="StopL"
       style="overflow:visible">
      <path
         id="path5825"
         d="M 0,5.65 0,-5.65"
         style="fill:none;stroke:#000000;stroke-width:1pt"
         transform="scale(0.8,0.8)"
         inkscape:connector-curvature="0" />
    </marker>
    <marker
       style="overflow:visible"
       id="DistanceStart"
       refX="0"
       refY="0"
       orient="auto"
       inkscape:stockid="DistanceStart">
      <g
         id="g2300">
        <path
           style="fill:none;stroke:#ffffff;stroke-width:1.14999998;stroke-linecap:square"
           d="M 0,0 2,0"
           id="path2306"
           inkscape:connector-curvature="0" />
        <path
           style="fill:#000000;fill-rule:evenodd;stroke:none"
           d="M 0,0 13,4 9,0 13,-4 0,0 z"
           id="path2302"
           inkscape:connector-curvature="0" />
        <path
           style="fill:none;stroke:#000000;stroke-width:1;stroke-linecap:square"
           d="M 0,-4 0,40"
           id="path2304"
           inkscape:connector-curvature="0" />
      </g>
    </marker>
    <marker
       inkscape:stockid="Arrow1Mend"
       orient="auto"
       refY="0"
       refX="0"
       id="Arrow1Mend"
       style="overflow:visible">
      <path
         id="path3886"
         d="M 0,0 5,-5 -12.5,0 5,5 0,0 z"
         style="fill-rule:evenodd;stroke:#000000;stroke-width:1pt"
         transform="matrix(-0.4,0,0,-0.4,-4,0)"
         inkscape:connector-curvature="0" />
    </marker>
    <marker
       inkscape:stockid="Arrow1Mstart"
       orient="auto"
       refY="0"
       refX="0"
       id="Arrow1Mstart"
       style="overflow:visible">
      <path
         id="path3883"
         d="M 0,0 5,-5 -12.5,0 5,5 0,0 z"
         style="fill-rule:evenodd;stroke:#000000;stroke-width:1pt"
         transform="matrix(0.4,0,0,0.4,4,0)"
         inkscape:connector-curvature="0" />
    </marker>
    <marker
       inkscape:stockid="Arrow1Mstart"
       orient="auto"
       refY="0"
       refX="0"
       id="Arrow1Mstart-4"
       style="overflow:visible">
      <path
         inkscape:connector-curvature="0"
         id="path3883-2"
         d="M 0,0 5,-5 -12.5,0 5,5 0,0 z"
         style="fill-rule:evenodd;stroke:#000000;stroke-width:1pt"
         transform="matrix(0.4,0,0,0.4,4,0)" />
    </marker>
    <marker
       inkscape:stockid="Arrow1Mend"
       orient="auto"
       refY="0"
       refX="0"
       id="Arrow1Mend-7"
       style="overflow:visible">
      <path
         inkscape:connector-curvature="0"
         id="path3886-9"
         d="M 0,0 5,-5 -12.5,0 5,5 0,0 z"
         style="fill-rule:evenodd;stroke:#000000;stroke-width:1pt"
         transform="matrix(-0.4,0,0,-0.4,-4,0)" />
    </marker>
    <marker
       inkscape:stockid="Arrow1Mstart"
       orient="auto"
       refY="0"
       refX="0"
       id="Arrow1Mstart-4-4"
       style="overflow:visible">
      <path
         inkscape:connector-curvature="0"
         id="path3883-2-9"
         d="M 0,0 5,-5 -12.5,0 5,5 0,0 z"
         style="fill-rule:evenodd;stroke:#000000;stroke-width:1pt"
         transform="matrix(0.4,0,0,0.4,4,0)" />
    </marker>
    <marker
       inkscape:stockid="Arrow1Mend"
       orient="auto"
       refY="0"
       refX="0"
       id="Arrow1Mend-7-9"
       style="overflow:visible">
      <path
         inkscape:connector-curvature="0"
         id="path3886-9-7"
         d="M 0,0 5,-5 -12.5,0 5,5 0,0 z"
         style="fill-rule:evenodd;stroke:#000000;stroke-width:1pt"
         transform="matrix(-0.4,0,0,-0.4,-4,0)" />
    </marker>
    <marker
       inkscape:stockid="StopL"
       orient="auto"
       refY="0"
       refX="0"
       id="StopL-5"
       style="overflow:visible">
      <path
         id="path5825-0"
         d="M 0,5.65 0,-5.65"
         style="fill:none;stroke:#000000;stroke-width:1pt"
         transform="scale(0.8,0.8)"
         inkscape:connector-curvature="0" />
    </marker>
    <marker
       inkscape:stockid="Arrow1Mend"
       orient="auto"
       refY="0"
       refX="0"
       id="Arrow1Mend-7-97"
       style="overflow:visible">
      <path
         inkscape:connector-curvature="0"
         id="path3886-9-73"
         d="M 0,0 5,-5 -12.5,0 5,5 0,0 z"
         style="fill-rule:evenodd;stroke:#000000;stroke-width:1pt"
         transform="matrix(-0.4,0,0,-0.4,-4,0)" />
    </marker>
  </defs>
  <metadata
     id="metadata7">
    <rdf:RDF>
      <cc:Work
         rdf:about="">
        <dc:format>image/svg+xml</dc:format>
        <dc:type
           rdf:resource="http://purl.org/dc/dcmitype/StillImage" />
        <dc:title />
      </cc:Work>
    </rdf:RDF>
  </metadata>
  <g
     inkscape:label="Layer 1"
     inkscape:groupmode="layer"
     id="layer1"
     transform="translate(-44.8125,-97.112958)">
    <flowRoot
       style="font-size:8px;font-style:normal;font-variant:normal;font-weight:normal;font-stretch:normal;line-height:125%;letter-spacing:0px;word-spacing:0px;fill:#000000;fill-opacity:1;stroke:none;font-family:Monospace;-inkscape-font-specification:Monospace"
       id="flowRoot4599"
       xml:space="preserve"><flowRegion
         id="flowRegion4601"><rect
           y="-102.41881"
           x="8.586297"
           height="77.276672"
           width="88.388351"
           id="rect4603" /></flowRegion><flowPara
         id="flowPara4605" /></flowRoot>    <flowRoot
       xml:space="preserve"
       id="flowRoot4684"
       style="font-size:8px;font-style:normal;font-variant:normal;font-weight:normal;font-stretch:normal;line-height:125%;letter-spacing:0px;word-spacing:0px;fill:#000000;fill-opacity:1;stroke:none;font-family:Monospace;-inkscape-font-specification:Monospace"><flowRegion
         id="flowRegion4686"><rect
           id="rect4688"
           width="92.934036"
           height="59.093925"
           x="86.368042"
           y="-85.246216" /></flowRegion><flowPara
         id="flowPara4690" /></flowRoot>    <path
       inkscape:connector-curvature="0"
       id="path3343"
       d="m 44.811263,135.29877 86.254967,0"
       style="fill:none;stroke:#000000;stroke-width:1.08086169px;stroke-linecap:butt;stroke-linejoin:miter;stroke-opacity:1" />
    <path
       inkscape:connector-curvature="0"
       id="path3345"
       d="m 101.58669,135.11388 0,63.70074"
       style="fill:none;stroke:#000000;stroke-width:1.18961132px;stroke-linecap:butt;stroke-linejoin:miter;stroke-opacity:1"
       sodipodi:nodetypes="cc" />
    <path
       sodipodi:nodetypes="cc"
       inkscape:connector-curvature="0"
       id="path3347-8"
       d="m 45.449572,163.26433 50.954903,0"
       style="fill:none;stroke:#000000;stroke-width:1.08086169px;stroke-linecap:butt;stroke-linejoin:miter;stroke-opacity:1;marker-start:url(#StopL);marker-end:url(#Arrow1Mend-7)" />
    <path
       inkscape:connector-curvature="0"
       id="path4944"
       d="m 155.63254,119.46715 0,26.74996"
       style="fill:none;stroke:#000000;stroke-width:1.08086169px;stroke-linecap:butt;stroke-linejoin:miter;stroke-opacity:1;marker-end:url(#Arrow1Mend-7-9)" />
    <g
       id="g5188"
       transform="matrix(1.6212925,0,0,1.6212925,95.82516,60.104103)">
      <g
         word-spacing="normal"
         letter-spacing="normal"
         font-size-adjust="none"
         font-stretch="normal"
         font-weight="normal"
         font-variant="normal"
         font-style="normal"
         stroke-miterlimit="10.433"
         xml:space="preserve"
         transform="matrix(0.14090756,0,0,-0.14090756,-24.658823,101.80216)"
         id="g5190"
         style="font-style:normal;font-variant:normal;font-weight:normal;font-stretch:normal;letter-spacing:normal;word-spacing:normal;text-anchor:start;fill:none;stroke:#000000;stroke-linecap:butt;stroke-linejoin:miter;stroke-miterlimit:10.43299961;stroke-opacity:1;stroke-dasharray:none;stroke-dashoffset:0"><path
           id="path5192"
           d="m 460.8,412.82 0,0.03 0,0.02 0,0.03 0,0.04 0,0.04 0.01,0.05 0,0.05 0,0.06 0.01,0.05 0.01,0.07 0.01,0.06 0.01,0.07 0.01,0.07 0.01,0.08 0.02,0.08 0.02,0.08 0.02,0.08 0.02,0.08 0.03,0.09 0.03,0.09 0.03,0.09 0.04,0.09 0.03,0.09 0.05,0.1 0.04,0.09 0.05,0.1 0.06,0.09 0.06,0.1 0.06,0.09 0.07,0.1 0.07,0.09 0.07,0.1 c 1.96,-1.39 3.99,-1.55 4.94,-1.55 v 1.14 c -4.34,0 -4.34,4.99 -4.34,6.14 0,1.35 0.06,2.94 0.8,4.17 0.4,0.61 1.54,2 3.54,2 4.33,0 4.33,-4.98 4.33,-6.12 0,-1.34 -0.05,-2.94 -0.8,-4.19 -0.39,-0.59 -1.54,-2 -3.53,-2 h 0 v -1.14 c 4.63,0 8.06,3.44 8.06,7.28 0,1.85 -0.79,3.69 -2.03,4.83 1.78,1.69 3.58,1.94 4.49,1.94 0.09,0 0.34,0 0.5,-0.05 -0.56,-0.2 -0.8,-0.75 -0.8,-1.34 0,-0.85 0.64,-1.44 1.44,-1.44 0.5,0 1.44,0.34 1.44,1.48 0,0.85 -0.6,2.44 -2.54,2.44 -1,0 -3.18,-0.3 -5.28,-2.33 -2.09,1.64 -4.18,1.78 -5.28,1.78 -4.64,0 -8.08,-3.43 -8.08,-7.26 0,-2.19 1.1,-4.09 2.35,-5.14 -0.64,-0.74 -1.55,-2.39 -1.55,-4.13 0,-1.54 0.66,-3.43 2.2,-4.43 -3,-0.85 -4.59,-2.99 -4.59,-4.99 0,-3.58 4.94,-6.33 11.02,-6.33 l 0.04,1.14 c -5.03,0 -8.47,2.55 -8.47,5.19 0,2.3 1.89,4.14 4.1,4.28 h 2.94 c 4.28,0 9.85,0 9.85,-4.28 0,-2.69 -3.53,-5.19 -8.42,-5.19 h 0 l -0.04,-1.14 c 5.87,0 11.06,2.55 11.06,6.43 0,1.75 -0.7,4.29 -3.24,5.68 -2.64,1.39 -5.53,1.39 -8.57,1.39 -1.25,0 -3.39,0 -3.74,0.05 -1.59,0.2 -2.64,1.75 -2.64,3.34 z"
           inkscape:connector-curvature="0"
           style="fill:#000000;stroke-width:0" /></g>    </g>
    <path
       inkscape:connector-curvature="0"
       id="path3345-8"
       d="m 75.727267,135.77553 0,64.26265"
       style="fill:none;stroke:#000000;stroke-width:1.18961132px;stroke-linecap:butt;stroke-linejoin:miter;stroke-opacity:1"
       sodipodi:nodetypes="cc" />
    <path
       sodipodi:nodetypes="cc"
       inkscape:connector-curvature="0"
       id="path3347-8-0"
       d="m 45.911167,189.25918 25.950214,0"
       style="fill:none;stroke:#000000;stroke-width:1.08086169px;stroke-linecap:butt;stroke-linejoin:miter;stroke-opacity:1;marker-start:url(#StopL);marker-end:url(#Arrow1Mend-7)" />
    <g
       transform="matrix(2.6549929,0,0,2.6549929,-30.719726,-5.3264865)"
       id="g3373">
      <g
         style="font-style:normal;font-variant:normal;font-weight:normal;font-stretch:normal;letter-spacing:normal;word-spacing:normal;text-anchor:start;fill:none;stroke:#000000;stroke-linecap:butt;stroke-linejoin:miter;stroke-miterlimit:10.43299961;stroke-opacity:1;stroke-dasharray:none;stroke-dashoffset:0"
         id="g3375"
         transform="matrix(0.11188967,0,0,-0.11188967,-19.580692,116.06609)"
         xml:space="preserve"
         stroke-miterlimit="10.433"
         font-style="normal"
         font-variant="normal"
         font-weight="normal"
         font-stretch="normal"
         font-size-adjust="none"
         letter-spacing="normal"
         word-spacing="normal"><path
           style="fill:#000000;stroke-width:0"
           inkscape:connector-curvature="0"
           d="m 474.95,448.9 0,0.01 0,0 0,0 0.01,0.01 0,0 0,0.01 0,0.01 0,0 0.01,0.01 0,0.01 0,0.01 0.01,0.02 0,0.02 0.01,0.02 0.01,0.02 0,0.02 0.01,0.02 0,0.03 0.01,0.02 0.01,0.05 0.01,0.04 0.01,0.03 0,0.02 0.01,0.02 0,0.02 0.01,0.02 0,0.02 0.01,0.02 0,0.01 0,0.01 0,0.01 0,0 0.01,0.01 0,0 0,0.01 0,0 0,0.01 0,0 0,0 0,0.01 0,0 c 0,0.19 -0.14,0.5 -0.56,0.5 -0.69,0 -3.6,-0.28 -4.46,-0.36 -0.25,-0.03 -0.73,-0.06 -0.73,-0.8 0,-0.48 0.48,-0.48 0.87,-0.48 1.68,0 1.68,-0.25 1.68,-0.53 0,-0.24 -0.08,-0.46 -0.14,-0.77 l -4.33,-17.2 c -0.11,-0.36 -0.14,-0.74 -0.14,-1.08 0,-2.23 1.98,-3.31 3.65,-3.31 0.85,0 1.89,0.28 2.8,1.84 0.73,1.28 1.22,3.35 1.22,3.49 0,0.45 -0.45,0.45 -0.56,0.45 -0.49,0 -0.55,-0.2 -0.69,-0.84 -0.45,-1.74 -1.13,-3.97 -2.63,-3.97 -0.93,0 -1.17,0.87 -1.17,1.7 0,0.39 0.1,1.05 0.21,1.44 z"
           id="path3377" /><polyline
           style="fill:#000000;fill-rule:nonzero;stroke-width:0"
           points="462,418 481.92,418 481.92,420.04 462,420.04 "
           id="polyline3379" /><path
           style="fill:#000000;stroke-width:0"
           inkscape:connector-curvature="0"
           d="m 479.96,394.76 v 1.25 h -3.88 v 15.54 c 0,0.72 0,0.97 -0.76,0.97 -0.43,0 -0.57,0 -0.91,-0.48 l -11.53,-16.03 v -1.25 h 10.25 l 0.23,1.25 h -9.2 l 9.2,12.75 v -12.75 l -0.23,-1.25 v -2.86 c 0,-1.19 0,-1.61 -2.83,-1.61 h -0.94 v -1.25 c 1.74,0.06 3.97,0.14 5.22,0.14 1.3,0 3.52,-0.08 5.27,-0.14 v 1.25 h -0.94 c -2.83,0 -2.83,0.42 -2.83,1.61 v 2.86 z"
           id="path3381" /></g>    </g>
    <g
       id="g3489"
       transform="matrix(2.6549929,0,0,2.6549929,-32.342756,-31.809103)">
      <g
         word-spacing="normal"
         letter-spacing="normal"
         font-size-adjust="none"
         font-stretch="normal"
         font-weight="normal"
         font-variant="normal"
         font-style="normal"
         stroke-miterlimit="10.433"
         xml:space="preserve"
         transform="matrix(0.11188967,0,0,-0.11188967,-19.580692,116.06609)"
         id="g3491"
         style="font-style:normal;font-variant:normal;font-weight:normal;font-stretch:normal;letter-spacing:normal;word-spacing:normal;text-anchor:start;fill:none;stroke:#000000;stroke-linecap:butt;stroke-linejoin:miter;stroke-miterlimit:10.43299961;stroke-opacity:1;stroke-dasharray:none;stroke-dashoffset:0"><path
           id="path3493"
           d="m 479.11,432.11 h -1.18 c -0.1,-0.77 -0.46,-2.83 -0.91,-3.18 -0.27,-0.2 -2.95,-0.2 -3.44,-0.2 h -6.42 c 3.66,3.23 4.88,4.2 6.97,5.84 2.58,2.07 4.98,4.22 4.98,7.54 0,4.21 -3.68,6.79 -8.15,6.79 -4.32,0 -7.25,-3.03 -7.25,-6.23 0,-1.78 1.5,-1.96 1.86,-1.96 0.82,0 1.84,0.6 1.84,1.85 0,0.62 -0.25,1.84 -2.06,1.84 1.08,2.47 3.45,3.24 5.09,3.24 3.49,0 5.3,-2.71 5.3,-5.53 0,-3.04 -2.16,-5.44 -3.28,-6.69 l -8.39,-8.3 c -0.36,-0.31 -0.36,-0.39 -0.36,-1.36 h 14.36 z"
           inkscape:connector-curvature="0"
           style="fill:#000000;stroke-width:0" /><path
           id="path3495"
           d="m 491.14,448.9 0.01,0.01 0,0 0,0 0,0.01 0,0 0.01,0.01 0,0.01 0,0 0,0.01 0,0.01 0.01,0.01 0,0.02 0.01,0.02 0.01,0.02 0,0.02 0.01,0.02 0,0.02 0.01,0.03 0,0.02 0.02,0.05 0.01,0.04 0,0.03 0.01,0.02 0,0.02 0.01,0.02 0,0.02 0.01,0.02 0,0.02 0,0.01 0.01,0.01 0,0.01 0,0 0,0.01 0,0 0,0.01 0,0 0,0.01 0,0 0,0 0,0.01 0.01,0 c 0,0.19 -0.15,0.5 -0.57,0.5 -0.68,0 -3.59,-0.28 -4.45,-0.36 -0.25,-0.03 -0.73,-0.06 -0.73,-0.8 0,-0.48 0.48,-0.48 0.87,-0.48 1.67,0 1.67,-0.25 1.67,-0.53 0,-0.24 -0.08,-0.46 -0.14,-0.77 l -4.33,-17.2 c -0.11,-0.36 -0.14,-0.74 -0.14,-1.08 0,-2.23 1.99,-3.31 3.66,-3.31 0.84,0 1.89,0.28 2.8,1.84 0.73,1.28 1.21,3.35 1.21,3.49 0,0.45 -0.45,0.45 -0.56,0.45 -0.48,0 -0.54,-0.2 -0.69,-0.84 -0.45,-1.74 -1.12,-3.97 -2.62,-3.97 -0.94,0 -1.17,0.87 -1.17,1.7 0,0.39 0.09,1.05 0.2,1.44 z"
           inkscape:connector-curvature="0"
           style="fill:#000000;stroke-width:0" /><polyline
           id="polyline3497"
           points="462,418 494.76,418 494.76,420.04 462,420.04 "
           style="fill:#000000;fill-rule:nonzero;stroke-width:0" /><path
           id="path3499"
           d="m 477.39,400.68 0.26,-0.01 0.25,-0.01 0.24,-0.03 0.24,-0.04 0.23,-0.05 0.23,-0.06 0.22,-0.07 0.21,-0.08 0.21,-0.1 0.2,-0.1 0.2,-0.12 0.19,-0.12 0.18,-0.14 0.17,-0.15 0.17,-0.16 0.16,-0.17 0.15,-0.18 0.14,-0.19 0.14,-0.21 0.12,-0.21 0.12,-0.23 0.11,-0.23 0.1,-0.25 0.09,-0.25 0.08,-0.27 0.07,-0.28 0.06,-0.29 0.05,-0.3 0.04,-0.31 0.02,-0.32 0.02,-0.34 0.01,-0.34 c 0,-4.33 -2.52,-5.61 -4.53,-5.61 -1.4,0 -4.47,0.38 -5.93,2.44 1.63,0.06 2.02,1.22 2.02,1.95 0,1.11 -0.84,1.91 -1.92,1.91 -0.97,0 -1.96,-0.6 -1.96,-2.02 0,-3.28 3.63,-5.4 7.85,-5.4 4.84,0 8.19,3.25 8.19,6.73 0,2.72 -2.22,5.44 -6.07,6.23 3.66,1.33 4.99,3.94 4.99,6.07 0,2.75 -3.17,4.81 -7.03,4.81 -3.88,0 -6.83,-1.89 -6.83,-4.67 0,-1.19 0.76,-1.85 1.81,-1.85 1.08,0 1.77,0.8 1.77,1.77 0,1.02 -0.69,1.75 -1.77,1.81 1.22,1.55 3.61,1.92 4.91,1.92 1.56,0 3.76,-0.76 3.76,-3.79 0,-1.47 -0.48,-3.07 -1.39,-4.14 -1.15,-1.33 -2.12,-1.41 -3.87,-1.5 -0.88,-0.08 -0.94,-0.08 -1.11,-0.11 -0.08,0 -0.36,-0.07 -0.36,-0.46 0,-0.48 0.31,-0.48 0.9,-0.48 z"
           inkscape:connector-curvature="0"
           style="fill:#000000;stroke-width:0" /></g>    </g>
    <path
       style="fill:none;stroke:#000000;stroke-width:0.78666461px;stroke-linecap:butt;stroke-linejoin:miter;stroke-opacity:1;marker-end:url(#Arrow1Mend-7-97)"
       d="m 75.727268,132.50695 0,-23.59994"
       id="path3559"
       inkscape:connector-curvature="0" />
    <path
       inkscape:connector-curvature="0"
       id="path4601"
       d="m 101.85577,132.7879 0,-23.59994"
       style="fill:none;stroke:#000000;stroke-width:0.78666461px;stroke-linecap:butt;stroke-linejoin:miter;stroke-opacity:1;marker-end:url(#Arrow1Mend-7-97)" />
    <g
       id="g4661"
       transform="matrix(1.7699952,0,0,1.7699952,14.975864,-21.12829)">
      <g
         id="content"
         transform="matrix(0.11188967,0,0,-0.11188967,-19.580692,116.06609)"
         xml:space="preserve"
         stroke-miterlimit="10.433"
         font-style="normal"
         font-variant="normal"
         font-weight="normal"
         font-stretch="normal"
         font-size-adjust="none"
         letter-spacing="normal"
         word-spacing="normal"
         style="font-style:normal;font-variant:normal;font-weight:normal;font-stretch:normal;letter-spacing:normal;word-spacing:normal;text-anchor:start;fill:none;stroke:#000000;stroke-linecap:butt;stroke-linejoin:miter;stroke-miterlimit:10.43299961;stroke-opacity:1;stroke-dasharray:none;stroke-dashoffset:0"><path
           d="m 493.19,435 0.1,0.37 0.05,0.18 0.06,0.17 0.06,0.18 0.07,0.17 0.07,0.16 0.08,0.16 0.08,0.16 0.09,0.16 0.1,0.15 0.1,0.14 0.12,0.14 0.12,0.14 0.13,0.13 0.15,0.12 0.15,0.12 0.16,0.11 0.18,0.11 0.18,0.11 0.2,0.09 0.21,0.09 0.23,0.09 0.23,0.07 0.26,0.07 0.26,0.07 0.28,0.05 0.3,0.05 0.31,0.04 0.33,0.04 0.35,0.03 0.18,0.01 0.19,0 c 0.25,0 0.84,0.05 0.84,1 0,0.05 0,0.55 -0.64,0.55 -1.66,0 -3.39,-0.16 -5.03,-0.16 -1.7,0 -3.44,0.16 -5.1,0.16 -0.29,0 -0.89,0 -0.89,-1 0,-0.55 0.5,-0.55 0.89,-0.55 2.85,-0.04 3.4,-1.09 3.4,-2.18 0,-0.16 -0.1,-0.91 -0.15,-1.05 l -5.57,-22.17 -11.02,26 c -0.41,0.9 -0.45,0.95 -1.59,0.95 h -6.67 c -1,0 -1.46,0 -1.46,-1 0,-0.55 0.46,-0.55 1.39,-0.55 0.25,0 3.39,0 3.39,-0.45 l -6.67,-26.75 c -0.5,-2 -1.34,-3.59 -5.37,-3.73 -0.32,0 -0.86,-0.05 -0.86,-1 0,-0.35 0.25,-0.55 0.65,-0.55 1.6,0 3.33,0.16 4.99,0.16 1.69,0 3.48,-0.16 5.12,-0.16 0.25,0 0.89,0 0.89,1 0,0.5 -0.43,0.55 -0.98,0.55 -2.89,0.09 -3.3,1.18 -3.3,2.18 0,0.35 0.05,0.6 0.21,1.14 l 6.57,26.32 c 0.21,-0.3 0.21,-0.39 0.46,-0.89 l 12.4,-29.35 c 0.35,-0.86 0.49,-0.95 0.94,-0.95 0.55,0 0.55,0.16 0.8,1.05 z"
           id="path4664"
           inkscape:connector-curvature="0"
           style="fill:#000000;stroke-width:0" /><path
           d="m 507.27,420.92 0,0.04 0,0.04 0,0.05 0,0.04 0,0.03 0,0.04 0,0.04 0,0.03 0,0.04 0,0.03 -0.01,0.03 0,0.03 0,0.03 0,0.03 -0.01,0.03 0,0.02 -0.01,0.03 0,0.02 -0.01,0.03 0,0.02 -0.01,0.04 -0.02,0.04 -0.02,0.03 -0.01,0.03 -0.03,0.03 -0.02,0.03 -0.03,0.02 -0.03,0.02 -0.03,0.02 -0.04,0.01 -0.04,0.01 -0.04,0.02 -0.03,0 -0.02,0 -0.03,0.01 -0.02,0 -0.03,0.01 -0.03,0 -0.03,0 -0.03,0 -0.03,0 -0.04,0.01 -0.03,0 -0.04,0 -0.03,0 -0.04,0 -0.04,0 -0.04,0 -0.04,0 -0.04,0 -0.05,0 -0.04,0 c -2.24,-2.2 -5.39,-2.23 -6.83,-2.23 v -1.25 c 0.84,0 3.14,0 5.05,0.97 v -17.77 c 0,-1.16 0,-1.61 -3.49,-1.61 h -1.31 v -1.25 c 0.62,0.03 4.9,0.14 6.2,0.14 1.08,0 5.47,-0.11 6.24,-0.14 v 1.25 h -1.33 c -3.49,0 -3.49,0.45 -3.49,1.61 z"
           id="path4666"
           inkscape:connector-curvature="0"
           style="fill:#000000;stroke-width:0" /></g>    </g>
    <g
       id="g4790"
       transform="matrix(1.7699952,0,0,1.7699952,39.919495,-20.566387)">
      <g
         word-spacing="normal"
         letter-spacing="normal"
         font-size-adjust="none"
         font-stretch="normal"
         font-weight="normal"
         font-variant="normal"
         font-style="normal"
         stroke-miterlimit="10.433"
         xml:space="preserve"
         transform="matrix(0.11188967,0,0,-0.11188967,-19.580692,116.06609)"
         id="g4792"
         style="font-style:normal;font-variant:normal;font-weight:normal;font-stretch:normal;letter-spacing:normal;word-spacing:normal;text-anchor:start;fill:none;stroke:#000000;stroke-linecap:butt;stroke-linejoin:miter;stroke-miterlimit:10.43299961;stroke-opacity:1;stroke-dasharray:none;stroke-dashoffset:0"><path
           id="path4794"
           d="m 493.19,435 0.1,0.37 0.05,0.18 0.06,0.17 0.06,0.18 0.07,0.17 0.07,0.16 0.08,0.16 0.08,0.16 0.09,0.16 0.1,0.15 0.1,0.14 0.12,0.14 0.12,0.14 0.13,0.13 0.15,0.12 0.15,0.12 0.16,0.11 0.18,0.11 0.18,0.11 0.2,0.09 0.21,0.09 0.23,0.09 0.23,0.07 0.26,0.07 0.26,0.07 0.28,0.05 0.3,0.05 0.31,0.04 0.33,0.04 0.35,0.03 0.18,0.01 0.19,0 c 0.25,0 0.84,0.05 0.84,1 0,0.05 0,0.55 -0.64,0.55 -1.66,0 -3.39,-0.16 -5.03,-0.16 -1.7,0 -3.44,0.16 -5.1,0.16 -0.29,0 -0.89,0 -0.89,-1 0,-0.55 0.5,-0.55 0.89,-0.55 2.85,-0.04 3.4,-1.09 3.4,-2.18 0,-0.16 -0.1,-0.91 -0.15,-1.05 l -5.57,-22.17 -11.02,26 c -0.41,0.9 -0.45,0.95 -1.59,0.95 h -6.67 c -1,0 -1.46,0 -1.46,-1 0,-0.55 0.46,-0.55 1.39,-0.55 0.25,0 3.39,0 3.39,-0.45 l -6.67,-26.75 c -0.5,-2 -1.34,-3.59 -5.37,-3.73 -0.32,0 -0.86,-0.05 -0.86,-1 0,-0.35 0.25,-0.55 0.65,-0.55 1.6,0 3.33,0.16 4.99,0.16 1.69,0 3.48,-0.16 5.12,-0.16 0.25,0 0.89,0 0.89,1 0,0.5 -0.43,0.55 -0.98,0.55 -2.89,0.09 -3.3,1.18 -3.3,2.18 0,0.35 0.05,0.6 0.21,1.14 l 6.57,26.32 c 0.21,-0.3 0.21,-0.39 0.46,-0.89 l 12.4,-29.35 c 0.35,-0.86 0.49,-0.95 0.94,-0.95 0.55,0 0.55,0.16 0.8,1.05 z"
           inkscape:connector-curvature="0"
           style="fill:#000000;stroke-width:0" /><path
           id="path4796"
           d="m 513.2,405.11 h -1.19 c -0.1,-0.77 -0.46,-2.83 -0.91,-3.18 -0.26,-0.2 -2.95,-0.2 -3.44,-0.2 h -6.42 c 3.66,3.23 4.88,4.2 6.97,5.84 2.58,2.07 4.99,4.22 4.99,7.54 0,4.21 -3.69,6.79 -8.16,6.79 -4.31,0 -7.25,-3.03 -7.25,-6.23 0,-1.78 1.5,-1.96 1.86,-1.96 0.83,0 1.84,0.6 1.84,1.85 0,0.62 -0.25,1.84 -2.06,1.84 1.08,2.47 3.45,3.24 5.09,3.24 3.49,0 5.3,-2.71 5.3,-5.53 0,-3.04 -2.16,-5.44 -3.28,-6.69 l -8.39,-8.3 c -0.36,-0.31 -0.36,-0.39 -0.36,-1.36 h 14.36 z"
           inkscape:connector-curvature="0"
           style="fill:#000000;stroke-width:0" /></g>    </g>
  </g>
</svg>
