<?xml version="1.0" encoding="UTF-8" standalone="no"?>
<svg
   xmlns:dc="http://purl.org/dc/elements/1.1/"
   xmlns:cc="http://creativecommons.org/ns#"
   xmlns:rdf="http://www.w3.org/1999/02/22-rdf-syntax-ns#"
   xmlns:svg="http://www.w3.org/2000/svg"
   xmlns="http://www.w3.org/2000/svg"
   viewBox="0 0 740 596"
   height="596"
   width="740"
   xml:space="preserve"
   id="svg2"
   version="1.1"><metadata
     id="metadata8"><rdf:RDF><cc:Work
         rdf:about=""><dc:format>image/svg+xml</dc:format><dc:type
           rdf:resource="http://purl.org/dc/dcmitype/StillImage" /></cc:Work></rdf:RDF></metadata><defs
     id="defs6"><clipPath
       id="clipPath22"
       clipPathUnits="userSpaceOnUse"><path
         id="path20"
         d="M 334,395 V 4418 H 5505 V 395 Z" /></clipPath><clipPath
       id="clipPath34"
       clipPathUnits="userSpaceOnUse"><path
         id="path32"
         d="m 207.898,1073.48 h 135.586 v 280.211 H 207.898 Z" /></clipPath><clipPath
       id="clipPath44"
       clipPathUnits="userSpaceOnUse"><path
         id="path42"
         d="m 45.1953,52.0625 h 5459.61 v 4365.88 H 45.1953 Z" /></clipPath><clipPath
       id="clipPath54"
       clipPathUnits="userSpaceOnUse"><path
         id="path52"
         d="m 2829.23,52.0625 h 180.781 v 280.211 H 2829.23 Z" /></clipPath><clipPath
       id="clipPath64"
       clipPathUnits="userSpaceOnUse"><path
         id="path62"
         d="m 45.1953,52.0625 h 5459.61 v 4365.88 H 45.1953 Z" /></clipPath><clipPath
       id="clipPath74"
       clipPathUnits="userSpaceOnUse"><path
         id="path72"
         d="m 45.1953,2266.64 h 171.742 v 280.211 H 45.1953 Z" /></clipPath></defs><g
     transform="matrix(1.3333333,0,0,-1.3333333,0,596)"
     id="g10"><g
       transform="scale(0.1)"
       id="g12"><path
         id="path14"
         style="fill:#ffffff;fill-opacity:1;fill-rule:nonzero;stroke:none"
         d="M 0,4463.14 H 5550 V 6.86328 H 0 V 4463.14" /><g
         id="g16"><g
           clip-path="url(#clipPath22)"
           id="g18"><path
             id="path24"
             style="fill:none;stroke:#78000e;stroke-width:13.55860043;stroke-linecap:butt;stroke-linejoin:round;stroke-miterlimit:10;stroke-dasharray:none;stroke-opacity:1"
             d="M 343.484,1205.45 H 5495.77" /><path
             id="path26"
             style="fill:none;stroke:#000e78;stroke-width:13.55860043;stroke-linecap:butt;stroke-linejoin:round;stroke-miterlimit:10;stroke-dasharray:none;stroke-opacity:1"
             d="m 398.129,8783.82 2.641,-375.32 v 0 l 6.625,-746.85 6.628,-606.51 6.625,-502.36 13.344,-788.23 13.34,-585.7 26.555,-809.15 24.621,-502.54 25.492,-375.89 26.367,-291.3 26.278,-224.81 27.035,-183.86 23.808,-132.95 26.805,-125.3 26.914,-105.81 25.938,-87.14 23.554,-69.01 28.008,-71.88 23.727,-53.73 27.597,-55.6 24.43,-44 26.805,-43.51 25.523,-37.44 26.629,-35.49 24.457,-29.78 26.371,-29.5 27.406,-28.1 23.848,-22.6 25.76,-22.67 26.61,-21.72 26.04,-19.77 25.19,-17.85 27.97,-18.52 25.13,-15.57 26.84,-15.61 24.31,-13.34 26.58,-13.75 25.02,-12.22 26.14,-12.1 25.57,-11.2 26.75,-11.12 25.78,-10.16 26.36,-9.9 26.14,-9.33 24.02,-8.18 27.52,-8.97 24.63,-7.66 26.25,-7.8 25.13,-7.17 27.9,-7.61 24.16,-6.32 27.42,-6.9 24.99,-6.03 27.34,-6.33 23.58,-5.27 26.87,-5.79 25.95,-5.38 25.93,-5.18 25.83,-4.98 24.83,-4.63 26.83,-4.82 25.58,-4.46 26.91,-4.52 24.35,-3.97 26.93,-4.25 25.79,-3.93 25.73,-3.81 26.88,-3.85 24.75,-3.44 25.34,-3.43 27.99,-3.68 25.34,-3.22 25.92,-3.21 26.36,-3.17 24.22,-2.84 25.83,-2.94 25.62,-2.84 27.41,-2.97 24.2,-2.54 27.9,-2.86 25.19,-2.52 24.93,-2.43 26.8,-2.54 26.9,-2.49 24.48,-2.22 26,-2.29 25.37,-2.19 27.51,-2.31 23.8,-1.96 27.33,-2.2 25.69,-2.02 25.44,-1.96 25.48,-1.92 25.96,-1.9 27.54,-1.98 25.25,-1.78 24.92,-1.72 26.63,-1.8 26.59,-1.75 23.85,-1.55 28.26,-1.79 23.65,-1.47 27.66,-1.68 26.4,-1.58 23.56,-1.38 26.52,-1.53 26.68,-1.5 26.55,-1.47 24.62,-1.34 25.5,-1.36 26.36,-1.38 26.28,-1.34 27.03,-1.36 23.81,-1.18 26.81,-1.31 26.91,-1.28 25.94,-1.22 23.56,-1.09 28,-1.27 23.73,-1.06 27.59,-1.21 24.43,-1.05 26.8,-1.14 25.53,-1.06 26.63,-1.1 24.46,-0.98 26.38,-1.05 27.4,-1.06 23.85,-0.93 25.76,-0.97 26.61,-1 26.03,-0.95 25.19,-0.91 27.97,-0.99 25.14,-0.89 26.84,-0.92 24.31,-0.83 26.58,-0.89 25.02,-0.83 26.14,-0.85 25.56,-0.82 26.76,-0.84 25.77,-0.81 26.36,-0.81 26.14,-0.8 24.02,-0.71 27.53,-0.82 24.63,-0.71 26.25,-0.75 25.12,-0.71 27.91,-0.78 24.16,-0.67 27.42,-0.74 24.99,-0.67 27.33,-0.72 23.59,-0.63 26.87,-0.68 25.95,-0.66 25.93,-0.66 25.84,-0.64 24.82,-0.61 26.83,-0.64 25.57,-0.62 26.91,-0.63 24.37,-0.57 26.93,-0.62 25.78,-0.59 25.73,-0.58 26.87,-0.6 24.75,-0.54 25.35,-0.55 27.99,-0.59 25.34,-0.54 25.91,-0.54 26.36,-0.55 24.22,-0.49 25.83,-0.52 25.62,-0.52 27.42,-0.54 24.19,-0.47 27.91,-0.55 25.19,-0.48 24.93,-0.46 26.78,-0.5 26.91,-0.5 24.49,-0.45 26,-0.47 25.37,-0.45 27.5,-0.49 23.8,-0.42 27.33,-0.47 25.7,-0.44 25.44,-0.43 25.47,-0.43 25.98,-0.43 27.53,-0.45 25.24,-0.41 24.92,-0.41 26.64,-0.42 26.58,-0.42 25.07,-0.39" /></g></g><g
         id="g28"><g
           clip-path="url(#clipPath34)"
           id="g30"><path
             id="path36"
             style="fill:#000000;fill-opacity:1;fill-rule:nonzero;stroke:none"
             d="m 313.965,1290.84 -39.262,-136.43 c -1.883,-6.87 -2.824,-11.06 -2.824,-12.57 0,-1.13 0.351,-2.07 1.059,-2.83 0.707,-0.75 1.578,-1.13 2.613,-1.13 1.508,0 3.105,0.62 4.801,1.85 3.957,3.2 8.097,8.09 12.429,14.68 l 3.532,-3.68 c -7.25,-10.25 -13.938,-17.41 -20.055,-21.46 -4.52,-2.92 -8.805,-4.38 -12.852,-4.38 -2.922,0 -5.371,1.01 -7.347,3.04 -1.977,2.02 -2.965,4.3 -2.965,6.85 0,2.82 1.226,8.52 3.672,17.08 l 31.074,107.63 c 2.539,8.75 3.812,13.8 3.812,15.11 0,1.89 -0.73,3.42 -2.191,4.59 -1.457,1.17 -3.695,1.77 -6.707,1.77 -1.789,0 -4.473,-0.29 -8.051,-0.85 v 4.24 l 39.262,6.49" /></g></g><g
         id="g38"><g
           clip-path="url(#clipPath44)"
           id="g40"><path
             id="path46"
             style="fill:none;stroke:#000000;stroke-width:9.03909016;stroke-linecap:butt;stroke-linejoin:round;stroke-miterlimit:10;stroke-dasharray:none;stroke-opacity:1"
             d="M 343.484,404.586 H 5495.77" /></g></g><g
         id="g48"><g
           clip-path="url(#clipPath54)"
           id="g50"><path
             id="path56"
             style="fill:#000000;fill-opacity:1;fill-rule:nonzero;stroke:none"
             d="m 2932.61,269.422 -32.62,-112.699 13.14,11.156 c 14.31,12.047 23.58,20.996 27.82,26.836 1.41,1.879 2.11,3.336 2.11,4.375 0,0.66 -0.23,1.293 -0.7,1.906 -0.47,0.617 -1.36,1.106 -2.68,1.484 -1.32,0.379 -3.68,0.571 -7.07,0.571 h -3.95 l 1.27,4.375 h 50.14 l -1.13,-4.375 c -5.74,-0.289 -10.71,-1.184 -14.9,-2.688 -4.19,-1.508 -8.21,-3.722 -12.07,-6.64 -7.72,-5.743 -12.81,-9.7 -15.26,-11.86 l -9.89,-8.761 c 1.7,-5.559 3.77,-13.223 6.22,-23.02 4.05,-16.379 6.82,-26.125 8.34,-29.234 1.41,-3.02 2.91,-4.52 4.51,-4.52 1.22,0 2.74,0.66 4.52,1.981 3.95,2.82 8.19,7.429 12.71,13.839 l 4.09,-2.832 c -8.37,-10.539 -14.77,-17.488 -19.2,-20.824 -4.42,-3.344 -8.47,-5.015 -12.15,-5.015 -3.2,0 -5.7,1.273 -7.48,3.812 -3.01,4.52 -8.1,22.316 -15.25,53.387 l -15.68,-13.703 -11.86,-40.676 h -17.94 l 38.13,130.93 3.25,11.152 c 0.37,1.891 0.56,3.582 0.56,5.09 0,1.789 -0.7,3.289 -2.11,4.519 -1.41,1.223 -3.49,1.836 -6.22,1.836 -1.69,0 -4.47,-0.379 -8.33,-1.129 v 3.95 l 39.68,6.777" /></g></g><g
         id="g58"><g
           clip-path="url(#clipPath64)"
           id="g60"><path
             id="path66"
             style="fill:none;stroke:#000000;stroke-width:9.03909016;stroke-linecap:butt;stroke-linejoin:round;stroke-miterlimit:10;stroke-dasharray:none;stroke-opacity:1"
             d="M 343.484,404.586 V 4408.9" /></g></g><g
         id="g68"><g
           clip-path="url(#clipPath74)"
           id="g70"><path
             id="path76"
             style="fill:#000000;fill-opacity:1;fill-rule:nonzero;stroke:none"
             d="m 122.027,2424.69 c 3.766,-3.96 6.637,-7.91 8.618,-11.87 1.316,-2.73 3.578,-9.98 6.777,-21.75 l 10.027,15.26 c 2.637,3.67 5.887,7.15 9.746,10.45 3.86,3.29 7.25,5.55 10.168,6.77 1.789,0.75 3.817,1.14 6.075,1.14 3.292,0 5.906,-0.88 7.835,-2.62 1.934,-1.74 2.899,-3.88 2.899,-6.42 0,-2.92 -0.567,-4.9 -1.695,-5.93 -2.164,-1.89 -4.614,-2.83 -7.344,-2.83 -1.602,0 -3.344,0.33 -5.227,0.98 -3.578,1.23 -5.98,1.85 -7.203,1.85 -1.789,0 -3.953,-1.09 -6.496,-3.26 -4.801,-3.95 -10.453,-11.62 -16.949,-23.02 l 9.32,-39.55 c 1.508,-6.01 2.754,-9.62 3.742,-10.8 0.993,-1.17 1.957,-1.76 2.899,-1.76 1.597,0 3.48,0.9 5.648,2.69 4.238,3.48 7.817,8.04 10.735,13.69 l 4.097,-1.98 c -4.804,-9.04 -10.926,-16.57 -18.363,-22.6 -4.238,-3.39 -7.816,-5.08 -10.734,-5.08 -4.235,0 -7.625,2.45 -10.168,7.34 -1.602,2.92 -4.942,15.77 -10.028,38.56 -11.863,-20.72 -21.422,-34.08 -28.6716,-40.11 -4.6133,-3.86 -9.1328,-5.79 -13.5586,-5.79 -3.0117,0 -5.7891,1.13 -8.332,3.39 -1.8829,1.69 -2.8243,3.95 -2.8243,6.78 0,2.54 0.8477,4.66 2.543,6.35 1.6953,1.7 3.7656,2.54 6.2148,2.54 2.4454,0 5.0821,-1.22 7.9063,-3.66 1.9766,-1.79 3.4844,-2.69 4.5195,-2.69 0.9414,0 2.1211,0.62 3.5313,1.83 3.5786,2.93 8.4766,9.21 14.6876,18.86 6.215,9.66 10.266,16.6 12.148,20.84 -4.707,18.55 -7.25,28.39 -7.629,29.52 -1.789,4.99 -4.093,8.51 -6.918,10.58 -2.824,2.08 -6.968,3.11 -12.4292,3.11 -1.7891,0 -3.8125,-0.09 -6.0743,-0.28 v 4.1 l 30.5075,5.37" /></g></g></g></g></svg>