<?xml version="1.0" encoding="UTF-8" standalone="no"?>
<!-- Created with Inkscape (http://www.inkscape.org/) -->

<svg
   xmlns:dc="http://purl.org/dc/elements/1.1/"
   xmlns:cc="http://creativecommons.org/ns#"
   xmlns:rdf="http://www.w3.org/1999/02/22-rdf-syntax-ns#"
   xmlns:svg="http://www.w3.org/2000/svg"
   xmlns="http://www.w3.org/2000/svg"
   xmlns:sodipodi="http://sodipodi.sourceforge.net/DTD/sodipodi-0.dtd"
   xmlns:inkscape="http://www.inkscape.org/namespaces/inkscape"
   width="192.78572"
   height="81.428955"
   id="svg2"
   version="1.1"
   inkscape:version="0.48.3.1 r9886"
   sodipodi:docname="mass_horizontal.svg">
  <sodipodi:namedview
     id="base"
     pagecolor="#ffffff"
     bordercolor="#666666"
     borderopacity="1.0"
     inkscape:pageopacity="0.0"
     inkscape:pageshadow="2"
     inkscape:zoom="1.4"
     inkscape:cx="12.402599"
     inkscape:cy="70.838792"
     inkscape:document-units="px"
     inkscape:current-layer="layer1"
     showgrid="false"
     inkscape:window-width="958"
     inkscape:window-height="1061"
     inkscape:window-x="0"
     inkscape:window-y="17"
     inkscape:window-maximized="0"
     fit-margin-top="0"
     fit-margin-left="0"
     fit-margin-right="0"
     fit-margin-bottom="0" />
  <defs
     id="defs4">
    <marker
       inkscape:stockid="Arrow1Mend"
       orient="auto"
       refY="0.0"
       refX="0.0"
       id="Arrow1Mend"
       style="overflow:visible;">
      <path
         id="path3886"
         d="M 0.0,0.0 L 5.0,-5.0 L -12.5,0.0 L 5.0,5.0 L 0.0,0.0 z "
         style="fill-rule:evenodd;stroke:#000000;stroke-width:1.0pt;"
         transform="scale(0.4) rotate(180) translate(10,0)" />
    </marker>
    <marker
       inkscape:stockid="Arrow1Mstart"
       orient="auto"
       refY="0.0"
       refX="0.0"
       id="Arrow1Mstart"
       style="overflow:visible">
      <path
         id="path3883"
         d="M 0.0,0.0 L 5.0,-5.0 L -12.5,0.0 L 5.0,5.0 L 0.0,0.0 z "
         style="fill-rule:evenodd;stroke:#000000;stroke-width:1.0pt"
         transform="scale(0.4) translate(10,0)" />
    </marker>
    <marker
       inkscape:stockid="Arrow1Mstart"
       orient="auto"
       refY="0"
       refX="0"
       id="Arrow1Mstart-4"
       style="overflow:visible">
      <path
         inkscape:connector-curvature="0"
         id="path3883-2"
         d="M 0,0 5,-5 -12.5,0 5,5 0,0 z"
         style="fill-rule:evenodd;stroke:#000000;stroke-width:1pt"
         transform="matrix(0.4,0,0,0.4,4,0)" />
    </marker>
    <marker
       inkscape:stockid="Arrow1Mend"
       orient="auto"
       refY="0"
       refX="0"
       id="Arrow1Mend-7"
       style="overflow:visible">
      <path
         inkscape:connector-curvature="0"
         id="path3886-9"
         d="M 0,0 5,-5 -12.5,0 5,5 0,0 z"
         style="fill-rule:evenodd;stroke:#000000;stroke-width:1pt"
         transform="matrix(-0.4,0,0,-0.4,-4,0)" />
    </marker>
  </defs>
  <metadata
     id="metadata7">
    <rdf:RDF>
      <cc:Work
         rdf:about="">
        <dc:format>image/svg+xml</dc:format>
        <dc:type
           rdf:resource="http://purl.org/dc/dcmitype/StillImage" />
        <dc:title />
      </cc:Work>
    </rdf:RDF>
  </metadata>
  <g
     inkscape:label="Layer 1"
     inkscape:groupmode="layer"
     id="layer1"
     transform="translate(-243.37053,-525.77679)">
    <path
       style="fill:none;stroke:#000000;stroke-width:1px;stroke-linecap:butt;stroke-linejoin:miter;stroke-opacity:1"
       d="m 172.5,83.59375 -191.071429,0 0,-74.2857144"
       id="path3006"
       inkscape:connector-curvature="0"
       transform="translate(263.15625,516.96875)"
       sodipodi:nodetypes="ccc" />
    <path
       style="fill:none;stroke:#000000;stroke-width:1px;stroke-linecap:butt;stroke-linejoin:miter;stroke-opacity:1"
       d="m 243.87053,579.49107 18.92858,0 6.00263,-10.39687 12.94362,22.41902 12.61501,-21.84985 11.47497,19.87524 12.07037,-20.90648 13.10626,22.70072 8.75197,-15.15885 15.89231,0"
       id="path3065"
       inkscape:connector-curvature="0" />
    <path
       sodipodi:type="arc"
       style="fill:#000000;fill-opacity:0;stroke:#000000;stroke-width:2;stroke-miterlimit:4;stroke-opacity:1;stroke-dasharray:none"
       id="path3067"
       sodipodi:cx="115.71429"
       sodipodi:cy="50.379463"
       sodipodi:rx="23.928572"
       sodipodi:ry="23.928572"
       d="m 91.802721,51.281434 c -0.498145,-13.205993 9.803599,-24.315392 23.009599,-24.813537 13.20599,-0.498145 24.31539,9.803602 24.81353,23.009595 0.49815,13.205993 -9.8036,24.315392 -23.00959,24.813537 -13.19783,0.497837 -24.303363,-9.791297 -24.812741,-22.988684"
       transform="translate(262.79911,525.54018)"
       sodipodi:start="3.1038894"
       sodipodi:end="9.3862002"
       sodipodi:open="true" />
    <path
       style="fill:none;stroke:#000000;stroke-width:1px;stroke-linecap:butt;stroke-linejoin:miter;stroke-opacity:1"
       d="m -6.5659915,83.339936 -3.3820678,5.857913"
       id="path3069"
       inkscape:connector-curvature="0"
       transform="translate(263.15625,516.96875)" />
    <path
       style="fill:none;stroke:#000000;stroke-width:1px;stroke-linecap:butt;stroke-linejoin:miter;stroke-opacity:1"
       d="m 275.91872,600.84783 -3.38207,5.85791"
       id="path3069-4"
       inkscape:connector-curvature="0" />
    <path
       inkscape:connector-curvature="0"
       id="path3089"
       d="m 295.47229,600.75854 -3.38207,5.85791"
       style="fill:none;stroke:#000000;stroke-width:1px;stroke-linecap:butt;stroke-linejoin:miter;stroke-opacity:1" />
    <path
       style="fill:none;stroke:#000000;stroke-width:1px;stroke-linecap:butt;stroke-linejoin:miter;stroke-opacity:1"
       d="m 315.74015,600.75854 -3.38207,5.85791"
       id="path3091"
       inkscape:connector-curvature="0" />
    <path
       inkscape:connector-curvature="0"
       id="path3093"
       d="m 337.70444,600.57997 -3.38207,5.85791"
       style="fill:none;stroke:#000000;stroke-width:1px;stroke-linecap:butt;stroke-linejoin:miter;stroke-opacity:1" />
    <path
       style="fill:none;stroke:#000000;stroke-width:1px;stroke-linecap:butt;stroke-linejoin:miter;stroke-opacity:1"
       d="m 356.45444,600.66926 -3.38207,5.85791"
       id="path3095"
       inkscape:connector-curvature="0" />
    <path
       inkscape:connector-curvature="0"
       id="path3097"
       d="m 378.06158,600.31212 -3.38207,5.85791"
       style="fill:none;stroke:#000000;stroke-width:1px;stroke-linecap:butt;stroke-linejoin:miter;stroke-opacity:1" />
    <path
       style="fill:none;stroke:#000000;stroke-width:1px;stroke-linecap:butt;stroke-linejoin:miter;stroke-opacity:1"
       d="m 401.45444,600.49069 -3.38207,5.85791"
       id="path3099"
       inkscape:connector-curvature="0" />
    <path
       inkscape:connector-curvature="0"
       id="path3101"
       d="m 425.38301,600.84783 -3.38207,5.85791"
       style="fill:none;stroke:#000000;stroke-width:1px;stroke-linecap:butt;stroke-linejoin:miter;stroke-opacity:1" />
    <path
       style="fill:none;stroke:#000000;stroke-width:1px;stroke-linecap:butt;stroke-linejoin:miter;stroke-opacity:1;marker-start:url(#Arrow1Mstart);marker-end:url(#Arrow1Mend)"
       d="m 247.65624,537.92003 81.42858,0.35714"
       id="path3103"
       inkscape:connector-curvature="0"
       sodipodi:nodetypes="cc" />
    <path
       sodipodi:nodetypes="cc"
       inkscape:connector-curvature="0"
       id="path4533"
       d="m 333.72767,537.92003 43.57144,0.35714"
       style="fill:none;stroke:#000000;stroke-width:1px;stroke-linecap:butt;stroke-linejoin:miter;stroke-opacity:1;marker-start:url(#Arrow1Mstart);marker-end:url(#Arrow1Mend)" />
    <path
       style="fill:none;stroke:#000000;stroke-width:1;stroke-linecap:butt;stroke-linejoin:miter;stroke-opacity:1;stroke-miterlimit:4;stroke-dasharray:1,1;stroke-dashoffset:0"
       d="m 135.71429,50.000384 0,-45.3571433"
       id="path4535"
       inkscape:connector-curvature="0"
       transform="translate(243.37053,525.77679)" />
    <g
       id="g4565">
      <g
         id="content"
         transform="matrix(0.116327078571,0,0,-0.116327078571,-20.35723875,144.58929)"
         xml:space="preserve"
         stroke="black"
         stroke-linecap="butt"
         stroke-linejoin="miter"
         stroke-miterlimit="10.433"
         stroke-dasharray="none"
         stroke-dashoffset="0"
         stroke-opacity="1"
         fill="none"
         fill-rule="evenodd"
         fill-opacity="1"
         font-style="normal"
         font-variant="normal"
         font-weight="normal"
         font-stretch="normal"
         font-size-adjust="none"
         letter-spacing="normal"
         word-spacing="normal"
         text-anchor="start"><path
           d="M478.99,424.98 L479,425.04 L479.01,425.09 L479.02,425.14 L479.03,425.2 L479.05,425.3 L479.06,425.35 L479.08,425.41 L479.09,425.46 L479.1,425.52 L479.11,425.57 L479.11,425.63 L479.12,425.69 L479.12,425.75 L479.13,425.78 L479.13,425.81 L479.13,425.84 L479.13,425.87 C479.13,426.73,478.54,427.23,477.69,427.23 C477.19,427.23,475.85,426.87,475.64,425.07 C474.75,426.92,473,428.21,471.02,428.21 L471.07,427.12 C474.35,427.12,475.05,423.09,475.05,422.84 C475.05,422.59,474.96,422.29,474.89,422.09 L472.5,412.57 C472.21,411.28,471.07,410.04,469.97,409.09 C468.93,408.2,467.38,407.29,465.93,407.29 C463.44,407.29,462.69,409.89,462.69,411.87 C462.69,414.28,464.14,420.15,465.49,422.68 C466.83,425.14,468.97,427.12,471.07,427.12 L471.02,428.21 C465.33,428.21,459.16,421.25,459.16,414.07 C459.16,409.14,462.19,406.2,465.79,406.2 C468.72,406.2,471.07,408.54,471.57,409.09 L471.61,409.04 C470.57,404.61,469.97,402.56,469.97,402.46 C469.77,402.01,468.08,397.07,462.8,397.07 C461.85,397.07,460.21,397.14,458.8,397.57 C460.3,398.03,460.85,399.32,460.85,400.17 C460.85,400.96,460.3,401.92,458.96,401.92 C457.86,401.92,456.27,401.01,456.27,399.03 C456.27,396.98,458.11,395.98,462.89,395.98 C469.11,395.98,472.71,399.87,473.46,402.86 Z "
           stroke-width="0"
           fill="black"
           id="path4568" /></g>    </g>
    <flowRoot
       style="fill:black;stroke:none;stroke-opacity:1;stroke-width:1px;stroke-linejoin:miter;stroke-linecap:butt;fill-opacity:1;font-family:Monospace;font-style:normal;font-weight:normal;font-size:8px;line-height:125%;letter-spacing:0px;word-spacing:0px;-inkscape-font-specification:Monospace;font-stretch:normal;font-variant:normal"
       id="flowRoot4599"
       xml:space="preserve"><flowRegion
         id="flowRegion4601"><rect
           y="-102.41881"
           x="8.586297"
           height="77.276672"
           width="88.388351"
           id="rect4603" /></flowRegion><flowPara
         id="flowPara4605" /></flowRoot>    <g
       id="g4642">
      <g
         text-anchor="start"
         word-spacing="normal"
         letter-spacing="normal"
         font-size-adjust="none"
         font-stretch="normal"
         font-weight="normal"
         font-variant="normal"
         font-style="normal"
         fill-opacity="1"
         fill-rule="evenodd"
         fill="none"
         stroke-opacity="1"
         stroke-dashoffset="0"
         stroke-dasharray="none"
         stroke-miterlimit="10.433"
         stroke-linejoin="miter"
         stroke-linecap="butt"
         stroke="black"
         xml:space="preserve"
         transform="matrix(0.116327078571,0,0,-0.116327078571,-20.35723875,144.58929)"
         id="g4644"><path
           id="path4646"
           fill="black"
           stroke-width="0"
           d="M478.99,424.98 L479,425.04 L479.01,425.09 L479.02,425.14 L479.03,425.2 L479.05,425.3 L479.06,425.35 L479.08,425.41 L479.09,425.46 L479.1,425.52 L479.11,425.57 L479.11,425.63 L479.12,425.69 L479.12,425.75 L479.13,425.78 L479.13,425.81 L479.13,425.84 L479.13,425.87 C479.13,426.73,478.54,427.23,477.69,427.23 C477.19,427.23,475.85,426.87,475.64,425.07 C474.75,426.92,473,428.21,471.02,428.21 L471.07,427.12 C474.35,427.12,475.05,423.09,475.05,422.84 C475.05,422.59,474.96,422.29,474.89,422.09 L472.5,412.57 C472.21,411.28,471.07,410.04,469.97,409.09 C468.93,408.2,467.38,407.29,465.93,407.29 C463.44,407.29,462.69,409.89,462.69,411.87 C462.69,414.28,464.14,420.15,465.49,422.68 C466.83,425.14,468.97,427.12,471.07,427.12 L471.02,428.21 C465.33,428.21,459.16,421.25,459.16,414.07 C459.16,409.14,462.19,406.2,465.79,406.2 C468.72,406.2,471.07,408.54,471.57,409.09 L471.61,409.04 C470.57,404.61,469.97,402.56,469.97,402.46 C469.77,402.01,468.08,397.07,462.8,397.07 C461.85,397.07,460.21,397.14,458.8,397.57 C460.3,398.03,460.85,399.32,460.85,400.17 C460.85,400.96,460.3,401.92,458.96,401.92 C457.86,401.92,456.27,401.01,456.27,399.03 C456.27,396.98,458.11,395.98,462.89,395.98 C469.11,395.98,472.71,399.87,473.46,402.86 Z " /></g>    </g>
    <flowRoot
       xml:space="preserve"
       id="flowRoot4684"
       style="fill:black;stroke:none;stroke-opacity:1;stroke-width:1px;stroke-linejoin:miter;stroke-linecap:butt;fill-opacity:1;font-family:Monospace;font-style:normal;font-weight:normal;font-size:8px;line-height:125%;letter-spacing:0px;word-spacing:0px;-inkscape-font-specification:Monospace;font-stretch:normal;font-variant:normal"><flowRegion
         id="flowRegion4686"><rect
           id="rect4688"
           width="92.934036"
           height="59.093925"
           x="86.368042"
           y="-85.246216" /></flowRegion><flowPara
         id="flowPara4690" /></flowRoot>    <g
       id="g4734">
      <g
         id="g4736"
         transform="matrix(0.116327078571,0,0,-0.116327078571,-20.35723875,144.58929)"
         xml:space="preserve"
         stroke="black"
         stroke-linecap="butt"
         stroke-linejoin="miter"
         stroke-miterlimit="10.433"
         stroke-dasharray="none"
         stroke-dashoffset="0"
         stroke-opacity="1"
         fill="none"
         fill-rule="evenodd"
         fill-opacity="1"
         font-style="normal"
         font-variant="normal"
         font-weight="normal"
         font-stretch="normal"
         font-size-adjust="none"
         letter-spacing="normal"
         word-spacing="normal"
         text-anchor="start"><path
           d="M469.82,417.9 L470.1,418.26 L470.39,418.63 L470.69,419.01 L471,419.4 L471.61,420.18 L471.92,420.56 L472.22,420.95 L472.52,421.32 L472.82,421.69 L473.11,422.04 L473.39,422.38 L473.53,422.54 L473.66,422.7 L473.79,422.86 L473.92,423.01 L474.04,423.15 L474.16,423.29 L474.28,423.42 L474.39,423.54 C475.94,425.32,477.99,426.07,480.33,426.12 V427.67 C479.04,427.57,477.54,427.53,476.24,427.53 C474.75,427.53,472.11,427.62,471.46,427.67 V426.12 C472.5,426.03,472.91,425.39,472.91,424.59 C472.91,423.79,472.41,423.14,472.16,422.84 L469.07,418.95 L465.19,423.98 C464.74,424.48,464.74,424.59,464.74,424.89 C464.74,425.64,465.49,426.07,466.47,426.12 V427.67 C465.19,427.62,461.89,427.53,461.1,427.53 C460.05,427.53,457.71,427.57,456.36,427.67 V426.12 C459.85,426.12,459.91,426.07,462.24,423.09 L467.18,416.67 L462.49,410.73 C460.1,407.84,457.16,407.75,456.11,407.75 V406.2 C457.41,406.29,458.96,406.36,460.25,406.36 C461.69,406.36,463.79,406.25,464.99,406.2 V407.75 C463.89,407.89,463.54,408.54,463.54,409.29 C463.54,410.39,464.99,412.03,468.02,415.62 L471.82,410.64 C472.21,410.09,472.86,409.29,472.86,409 C472.86,408.54,472.41,407.79,471.07,407.75 V406.2 C472.55,406.25,475.35,406.36,476.44,406.36 C477.79,406.36,479.74,406.29,481.22,406.2 V407.75 C478.54,407.75,477.64,407.84,476.49,409.29 Z "
           stroke-width="0"
           fill="black"
           id="path4738" /></g>    </g>
    <g
       id="g4828">
      <g
         text-anchor="start"
         word-spacing="normal"
         letter-spacing="normal"
         font-size-adjust="none"
         font-stretch="normal"
         font-weight="normal"
         font-variant="normal"
         font-style="normal"
         fill-opacity="1"
         fill-rule="evenodd"
         fill="none"
         stroke-opacity="1"
         stroke-dashoffset="0"
         stroke-dasharray="none"
         stroke-miterlimit="10.433"
         stroke-linejoin="miter"
         stroke-linecap="butt"
         stroke="black"
         xml:space="preserve"
         transform="matrix(0.116327078571,0,0,-0.116327078571,-20.35723875,144.58929)"
         id="g4830"><path
           id="path4832"
           fill="black"
           stroke-width="0"
           d="M472.16,421.25 L472.19,421.38 L472.23,421.53 L472.27,421.69 L472.31,421.87 L472.37,422.06 L472.43,422.27 L472.49,422.49 L472.56,422.71 L472.64,422.94 L472.73,423.18 L472.83,423.43 L472.93,423.67 L473.04,423.92 L473.16,424.17 L473.29,424.42 L473.43,424.67 L473.58,424.91 L473.73,425.15 L473.9,425.38 L474.08,425.6 L474.26,425.82 L474.46,426.02 L474.67,426.21 L474.89,426.39 L475.12,426.55 L475.37,426.69 L475.49,426.76 L475.62,426.82 L475.76,426.87 L475.89,426.92 L476.03,426.97 L476.17,427.01 L476.32,427.04 L476.47,427.07 L476.62,427.09 L476.78,427.11 L476.94,427.12 L477.1,427.12 C477.35,427.12,478.54,427.12,479.58,426.48 C478.19,426.23,477.19,424.98,477.19,423.79 C477.19,423,477.74,422.04,479.08,422.04 C480.18,422.04,481.77,422.93,481.77,424.93 C481.77,427.53,478.83,428.21,477.14,428.21 C474.25,428.21,472.5,425.57,471.91,424.43 C470.66,427.71,467.97,428.21,466.54,428.21 C461.35,428.21,458.5,421.79,458.5,420.54 C458.5,420.04,459,420.04,459.11,420.04 C459.5,420.04,459.66,420.15,459.75,420.59 C461.44,425.87,464.74,427.12,466.43,427.12 C467.38,427.12,469.11,426.68,469.11,423.79 C469.11,422.25,468.27,418.9,466.43,411.93 C465.63,408.84,463.89,406.75,461.69,406.75 C461.39,406.75,460.25,406.75,459.21,407.4 C460.46,407.64,461.55,408.68,461.55,410.09 C461.55,411.43,460.46,411.82,459.71,411.82 C458.21,411.82,456.96,410.53,456.96,408.93 C456.96,406.65,459.46,405.65,461.64,405.65 C464.94,405.65,466.72,409.14,466.88,409.43 C467.47,407.59,469.27,405.65,472.25,405.65 C477.39,405.65,480.24,412.07,480.24,413.32 C480.24,413.82,479.79,413.82,479.63,413.82 C479.19,413.82,479.08,413.62,478.99,413.28 C477.35,407.95,473.96,406.75,472.36,406.75 C470.41,406.75,469.61,408.34,469.61,410.04 C469.61,411.14,469.91,412.23,470.47,414.42 Z " /></g>    </g>
    <g
       id="g4928">
      <g
         id="g4930"
         transform="matrix(0.116327078571,0,0,-0.116327078571,-20.35723875,144.58929)"
         xml:space="preserve"
         stroke="black"
         stroke-linecap="butt"
         stroke-linejoin="miter"
         stroke-miterlimit="10.433"
         stroke-dasharray="none"
         stroke-dashoffset="0"
         stroke-opacity="1"
         fill="none"
         fill-rule="evenodd"
         fill-opacity="1"
         font-style="normal"
         font-variant="normal"
         font-weight="normal"
         font-stretch="normal"
         font-size-adjust="none"
         letter-spacing="normal"
         word-spacing="normal"
         text-anchor="start"><path
           d="M472.16,421.25 L472.19,421.38 L472.23,421.53 L472.27,421.69 L472.31,421.87 L472.37,422.06 L472.43,422.27 L472.49,422.49 L472.56,422.71 L472.64,422.94 L472.73,423.18 L472.83,423.43 L472.93,423.67 L473.04,423.92 L473.16,424.17 L473.29,424.42 L473.43,424.67 L473.58,424.91 L473.73,425.15 L473.9,425.38 L474.08,425.6 L474.26,425.82 L474.46,426.02 L474.67,426.21 L474.89,426.39 L475.12,426.55 L475.37,426.69 L475.49,426.76 L475.62,426.82 L475.76,426.87 L475.89,426.92 L476.03,426.97 L476.17,427.01 L476.32,427.04 L476.47,427.07 L476.62,427.09 L476.78,427.11 L476.94,427.12 L477.1,427.12 C477.35,427.12,478.54,427.12,479.58,426.48 C478.19,426.23,477.19,424.98,477.19,423.79 C477.19,423,477.74,422.04,479.08,422.04 C480.18,422.04,481.77,422.93,481.77,424.93 C481.77,427.53,478.83,428.21,477.14,428.21 C474.25,428.21,472.5,425.57,471.91,424.43 C470.66,427.71,467.97,428.21,466.54,428.21 C461.35,428.21,458.5,421.79,458.5,420.54 C458.5,420.04,459,420.04,459.11,420.04 C459.5,420.04,459.66,420.15,459.75,420.59 C461.44,425.87,464.74,427.12,466.43,427.12 C467.38,427.12,469.11,426.68,469.11,423.79 C469.11,422.25,468.27,418.9,466.43,411.93 C465.63,408.84,463.89,406.75,461.69,406.75 C461.39,406.75,460.25,406.75,459.21,407.4 C460.46,407.64,461.55,408.68,461.55,410.09 C461.55,411.43,460.46,411.82,459.71,411.82 C458.21,411.82,456.96,410.53,456.96,408.93 C456.96,406.65,459.46,405.65,461.64,405.65 C464.94,405.65,466.72,409.14,466.88,409.43 C467.47,407.59,469.27,405.65,472.25,405.65 C477.39,405.65,480.24,412.07,480.24,413.32 C480.24,413.82,479.79,413.82,479.63,413.82 C479.19,413.82,479.08,413.62,478.99,413.28 C477.35,407.95,473.96,406.75,472.36,406.75 C470.41,406.75,469.61,408.34,469.61,410.04 C469.61,411.14,469.91,412.23,470.47,414.42 Z "
           stroke-width="0"
           fill="black"
           id="path4932" /></g>    </g>
    <g
       id="g5034">
      <g
         text-anchor="start"
         word-spacing="normal"
         letter-spacing="normal"
         font-size-adjust="none"
         font-stretch="normal"
         font-weight="normal"
         font-variant="normal"
         font-style="normal"
         fill-opacity="1"
         fill-rule="evenodd"
         fill="none"
         stroke-opacity="1"
         stroke-dashoffset="0"
         stroke-dasharray="none"
         stroke-miterlimit="10.433"
         stroke-linejoin="miter"
         stroke-linecap="butt"
         stroke="black"
         xml:space="preserve"
         transform="matrix(0.116327078571,0,0,-0.116327078571,-20.35723875,144.58929)"
         id="g5036"><path
           id="path5038"
           fill="black"
           stroke-width="0"
           d="M472.16,421.25 L472.19,421.38 L472.23,421.53 L472.27,421.69 L472.31,421.87 L472.37,422.06 L472.43,422.27 L472.49,422.49 L472.56,422.71 L472.64,422.94 L472.73,423.18 L472.83,423.43 L472.93,423.67 L473.04,423.92 L473.16,424.17 L473.29,424.42 L473.43,424.67 L473.58,424.91 L473.73,425.15 L473.9,425.38 L474.08,425.6 L474.26,425.82 L474.46,426.02 L474.67,426.21 L474.89,426.39 L475.12,426.55 L475.37,426.69 L475.49,426.76 L475.62,426.82 L475.76,426.87 L475.89,426.92 L476.03,426.97 L476.17,427.01 L476.32,427.04 L476.47,427.07 L476.62,427.09 L476.78,427.11 L476.94,427.12 L477.1,427.12 C477.35,427.12,478.54,427.12,479.58,426.48 C478.19,426.23,477.19,424.98,477.19,423.79 C477.19,423,477.74,422.04,479.08,422.04 C480.18,422.04,481.77,422.93,481.77,424.93 C481.77,427.53,478.83,428.21,477.14,428.21 C474.25,428.21,472.5,425.57,471.91,424.43 C470.66,427.71,467.97,428.21,466.54,428.21 C461.35,428.21,458.5,421.79,458.5,420.54 C458.5,420.04,459,420.04,459.11,420.04 C459.5,420.04,459.66,420.15,459.75,420.59 C461.44,425.87,464.74,427.12,466.43,427.12 C467.38,427.12,469.11,426.68,469.11,423.79 C469.11,422.25,468.27,418.9,466.43,411.93 C465.63,408.84,463.89,406.75,461.69,406.75 C461.39,406.75,460.25,406.75,459.21,407.4 C460.46,407.64,461.55,408.68,461.55,410.09 C461.55,411.43,460.46,411.82,459.71,411.82 C458.21,411.82,456.96,410.53,456.96,408.93 C456.96,406.65,459.46,405.65,461.64,405.65 C464.94,405.65,466.72,409.14,466.88,409.43 C467.47,407.59,469.27,405.65,472.25,405.65 C477.39,405.65,480.24,412.07,480.24,413.32 C480.24,413.82,479.79,413.82,479.63,413.82 C479.19,413.82,479.08,413.62,478.99,413.28 C477.35,407.95,473.96,406.75,472.36,406.75 C470.41,406.75,469.61,408.34,469.61,410.04 C469.61,411.14,469.91,412.23,470.47,414.42 Z " /></g>    </g>
    <text
       xml:space="preserve"
       style="font-size:12px;font-style:normal;font-variant:normal;font-weight:normal;font-stretch:normal;line-height:125%;letter-spacing:0px;word-spacing:0px;fill:#000000;fill-opacity:1;stroke:none;font-family:Monospace;-inkscape-font-specification:Monospace"
       x="423.37054"
       y="536.49146"
       id="text5100"
       sodipodi:linespacing="125%"><tspan
         sodipodi:role="line"
         id="tspan5102"
         x="423.37054"
         y="536.49146">g</tspan></text>
    <path
       style="fill:none;stroke:#000000;stroke-width:1px;stroke-linecap:butt;stroke-linejoin:miter;stroke-opacity:1;marker-end:url(#Arrow1Mend-7)"
       d="m 434.08482,523.63432 0,22.5"
       id="path5104"
       inkscape:connector-curvature="0" />
    <text
       xml:space="preserve"
       style="font-size:12px;font-style:normal;font-variant:normal;font-weight:normal;font-stretch:normal;line-height:125%;letter-spacing:0px;word-spacing:0px;fill:#000000;fill-opacity:1;stroke:none;font-family:Monospace;-inkscape-font-specification:Monospace"
       x="383.88602"
       y="577.49133"
       id="text5100-7"
       sodipodi:linespacing="125%"><tspan
         sodipodi:role="line"
         id="tspan5102-9"
         x="383.88602"
         y="577.49133">m</tspan></text>
    <g
       id="g5374">
      <g
         id="g5376"
         transform="matrix(0.116327078571,0,0,-0.116327078571,-20.35723875,144.58929)"
         xml:space="preserve"
         stroke="black"
         stroke-linecap="butt"
         stroke-linejoin="miter"
         stroke-miterlimit="10.433"
         stroke-dasharray="none"
         stroke-dashoffset="0"
         stroke-opacity="1"
         fill="none"
         fill-rule="evenodd"
         fill-opacity="1"
         font-style="normal"
         font-variant="normal"
         font-weight="normal"
         font-stretch="normal"
         font-size-adjust="none"
         letter-spacing="normal"
         word-spacing="normal"
         text-anchor="start"><path
           d="M459.91,409.14 L459.89,409.07 L459.88,408.99 L459.86,408.92 L459.85,408.84 L459.81,408.68 L459.77,408.52 L459.74,408.36 L459.7,408.2 L459.66,408.04 L459.62,407.88 L459.61,407.8 L459.59,407.73 L459.57,407.66 L459.56,407.59 L459.54,407.52 L459.53,407.45 L459.52,407.39 L459.51,407.33 L459.5,407.27 L459.49,407.22 L459.48,407.17 L459.47,407.13 L459.46,407.09 L459.46,407.05 L459.46,407.02 L459.46,407 C459.46,406.11,460.16,405.65,460.89,405.65 C461.5,405.65,462.39,406.04,462.74,407.04 C462.8,407.15,463.39,409.48,463.69,410.73 L464.79,415.21 C465.08,416.31,465.38,417.4,465.63,418.56 C465.83,419.4,466.24,420.84,466.29,421.04 C467.04,422.59,469.68,427.12,474.39,427.12 C476.64,427.12,477.1,425.28,477.1,423.64 C477.1,422.39,476.74,421,476.35,419.5 L474.96,413.71 L473.96,409.93 C473.75,408.93,473.3,407.25,473.3,407 C473.3,406.11,474,405.65,474.75,405.65 C476.3,405.65,476.6,406.9,476.99,408.5 C477.69,411.28,479.54,418.56,479.99,420.5 C480.13,421.15,482.77,427.12,488.21,427.12 C490.35,427.12,490.89,425.43,490.89,423.64 C490.89,420.79,488.8,415.12,487.8,412.48 C487.35,411.28,487.16,410.73,487.16,409.73 C487.16,407.4,488.89,405.65,491.24,405.65 C495.93,405.65,497.77,412.92,497.77,413.32 C497.77,413.82,497.32,413.82,497.18,413.82 C496.68,413.82,496.68,413.67,496.43,412.92 C495.68,410.28,494.08,406.75,491.35,406.75 C490.49,406.75,490.14,407.25,490.14,408.39 C490.14,409.64,490.6,410.84,491.04,411.93 C491.99,414.51,494.08,420.04,494.08,422.89 C494.08,426.12,492.08,428.21,488.35,428.21 C484.61,428.21,482.08,426.03,480.24,423.39 C480.18,424.04,480.04,425.73,478.63,426.92 C477.39,427.96,475.8,428.21,474.55,428.21 C470.07,428.21,467.63,425.03,466.79,423.89 C466.54,426.73,464.44,428.21,462.19,428.21 C459.91,428.21,458.96,426.28,458.5,425.39 C457.61,423.64,456.96,420.7,456.96,420.54 C456.96,420.04,457.46,420.04,457.57,420.04 C458.07,420.04,458.11,420.11,458.41,421.2 C459.25,424.73,460.25,427.12,462.05,427.12 C462.85,427.12,463.6,426.73,463.6,424.84 C463.6,423.79,463.44,423.23,462.8,420.65 Z "
           stroke-width="0"
           fill="black"
           id="path5378" /></g>    </g>
    <g
       id="g5502">
      <g
         text-anchor="start"
         word-spacing="normal"
         letter-spacing="normal"
         font-size-adjust="none"
         font-stretch="normal"
         font-weight="normal"
         font-variant="normal"
         font-style="normal"
         fill-opacity="1"
         fill-rule="evenodd"
         fill="none"
         stroke-opacity="1"
         stroke-dashoffset="0"
         stroke-dasharray="none"
         stroke-miterlimit="10.433"
         stroke-linejoin="miter"
         stroke-linecap="butt"
         stroke="black"
         xml:space="preserve"
         transform="matrix(0.116327078571,0,0,-0.116327078571,-20.35723875,144.58929)"
         id="g5504"><path
           id="path5506"
           fill="black"
           stroke-width="0"
           d="M459.91,409.14 L459.89,409.07 L459.88,408.99 L459.86,408.92 L459.85,408.84 L459.81,408.68 L459.77,408.52 L459.74,408.36 L459.7,408.2 L459.66,408.04 L459.62,407.88 L459.61,407.8 L459.59,407.73 L459.57,407.66 L459.56,407.59 L459.54,407.52 L459.53,407.45 L459.52,407.39 L459.51,407.33 L459.5,407.27 L459.49,407.22 L459.48,407.17 L459.47,407.13 L459.46,407.09 L459.46,407.05 L459.46,407.02 L459.46,407 C459.46,406.11,460.16,405.65,460.89,405.65 C461.5,405.65,462.39,406.04,462.74,407.04 C462.8,407.15,463.39,409.48,463.69,410.73 L464.79,415.21 C465.08,416.31,465.38,417.4,465.63,418.56 C465.83,419.4,466.24,420.84,466.29,421.04 C467.04,422.59,469.68,427.12,474.39,427.12 C476.64,427.12,477.1,425.28,477.1,423.64 C477.1,422.39,476.74,421,476.35,419.5 L474.96,413.71 L473.96,409.93 C473.75,408.93,473.3,407.25,473.3,407 C473.3,406.11,474,405.65,474.75,405.65 C476.3,405.65,476.6,406.9,476.99,408.5 C477.69,411.28,479.54,418.56,479.99,420.5 C480.13,421.15,482.77,427.12,488.21,427.12 C490.35,427.12,490.89,425.43,490.89,423.64 C490.89,420.79,488.8,415.12,487.8,412.48 C487.35,411.28,487.16,410.73,487.16,409.73 C487.16,407.4,488.89,405.65,491.24,405.65 C495.93,405.65,497.77,412.92,497.77,413.32 C497.77,413.82,497.32,413.82,497.18,413.82 C496.68,413.82,496.68,413.67,496.43,412.92 C495.68,410.28,494.08,406.75,491.35,406.75 C490.49,406.75,490.14,407.25,490.14,408.39 C490.14,409.64,490.6,410.84,491.04,411.93 C491.99,414.51,494.08,420.04,494.08,422.89 C494.08,426.12,492.08,428.21,488.35,428.21 C484.61,428.21,482.08,426.03,480.24,423.39 C480.18,424.04,480.04,425.73,478.63,426.92 C477.39,427.96,475.8,428.21,474.55,428.21 C470.07,428.21,467.63,425.03,466.79,423.89 C466.54,426.73,464.44,428.21,462.19,428.21 C459.91,428.21,458.96,426.28,458.5,425.39 C457.61,423.64,456.96,420.7,456.96,420.54 C456.96,420.04,457.46,420.04,457.57,420.04 C458.07,420.04,458.11,420.11,458.41,421.2 C459.25,424.73,460.25,427.12,462.05,427.12 C462.85,427.12,463.6,426.73,463.6,424.84 C463.6,423.79,463.44,423.23,462.8,420.65 Z " /></g>    </g>
    <g
       id="g5636">
      <g
         id="g5638"
         transform="matrix(0.116327078571,0,0,-0.116327078571,-20.35723875,144.58929)"
         xml:space="preserve"
         stroke="black"
         stroke-linecap="butt"
         stroke-linejoin="miter"
         stroke-miterlimit="10.433"
         stroke-dasharray="none"
         stroke-dashoffset="0"
         stroke-opacity="1"
         fill="none"
         fill-rule="evenodd"
         fill-opacity="1"
         font-style="normal"
         font-variant="normal"
         font-weight="normal"
         font-stretch="normal"
         font-size-adjust="none"
         letter-spacing="normal"
         word-spacing="normal"
         text-anchor="start"><path
           d="M459.91,409.14 L459.89,409.07 L459.88,408.99 L459.86,408.92 L459.85,408.84 L459.81,408.68 L459.77,408.52 L459.74,408.36 L459.7,408.2 L459.66,408.04 L459.62,407.88 L459.61,407.8 L459.59,407.73 L459.57,407.66 L459.56,407.59 L459.54,407.52 L459.53,407.45 L459.52,407.39 L459.51,407.33 L459.5,407.27 L459.49,407.22 L459.48,407.17 L459.47,407.13 L459.46,407.09 L459.46,407.05 L459.46,407.02 L459.46,407 C459.46,406.11,460.16,405.65,460.89,405.65 C461.5,405.65,462.39,406.04,462.74,407.04 C462.8,407.15,463.39,409.48,463.69,410.73 L464.79,415.21 C465.08,416.31,465.38,417.4,465.63,418.56 C465.83,419.4,466.24,420.84,466.29,421.04 C467.04,422.59,469.68,427.12,474.39,427.12 C476.64,427.12,477.1,425.28,477.1,423.64 C477.1,422.39,476.74,421,476.35,419.5 L474.96,413.71 L473.96,409.93 C473.75,408.93,473.3,407.25,473.3,407 C473.3,406.11,474,405.65,474.75,405.65 C476.3,405.65,476.6,406.9,476.99,408.5 C477.69,411.28,479.54,418.56,479.99,420.5 C480.13,421.15,482.77,427.12,488.21,427.12 C490.35,427.12,490.89,425.43,490.89,423.64 C490.89,420.79,488.8,415.12,487.8,412.48 C487.35,411.28,487.16,410.73,487.16,409.73 C487.16,407.4,488.89,405.65,491.24,405.65 C495.93,405.65,497.77,412.92,497.77,413.32 C497.77,413.82,497.32,413.82,497.18,413.82 C496.68,413.82,496.68,413.67,496.43,412.92 C495.68,410.28,494.08,406.75,491.35,406.75 C490.49,406.75,490.14,407.25,490.14,408.39 C490.14,409.64,490.6,410.84,491.04,411.93 C491.99,414.51,494.08,420.04,494.08,422.89 C494.08,426.12,492.08,428.21,488.35,428.21 C484.61,428.21,482.08,426.03,480.24,423.39 C480.18,424.04,480.04,425.73,478.63,426.92 C477.39,427.96,475.8,428.21,474.55,428.21 C470.07,428.21,467.63,425.03,466.79,423.89 C466.54,426.73,464.44,428.21,462.19,428.21 C459.91,428.21,458.96,426.28,458.5,425.39 C457.61,423.64,456.96,420.7,456.96,420.54 C456.96,420.04,457.46,420.04,457.57,420.04 C458.07,420.04,458.11,420.11,458.41,421.2 C459.25,424.73,460.25,427.12,462.05,427.12 C462.85,427.12,463.6,426.73,463.6,424.84 C463.6,423.79,463.44,423.23,462.8,420.65 Z "
           stroke-width="0"
           fill="black"
           id="path5640" /></g>    </g>
    <g
       id="g5776">
      <g
         text-anchor="start"
         word-spacing="normal"
         letter-spacing="normal"
         font-size-adjust="none"
         font-stretch="normal"
         font-weight="normal"
         font-variant="normal"
         font-style="normal"
         fill-opacity="1"
         fill-rule="evenodd"
         fill="none"
         stroke-opacity="1"
         stroke-dashoffset="0"
         stroke-dasharray="none"
         stroke-miterlimit="10.433"
         stroke-linejoin="miter"
         stroke-linecap="butt"
         stroke="black"
         xml:space="preserve"
         transform="matrix(0.116327078571,0,0,-0.116327078571,-20.35723875,144.58929)"
         id="g5778"><path
           id="path5780"
           fill="black"
           stroke-width="0"
           d="M459.91,409.14 L459.89,409.07 L459.88,408.99 L459.86,408.92 L459.85,408.84 L459.81,408.68 L459.77,408.52 L459.74,408.36 L459.7,408.2 L459.66,408.04 L459.62,407.88 L459.61,407.8 L459.59,407.73 L459.57,407.66 L459.56,407.59 L459.54,407.52 L459.53,407.45 L459.52,407.39 L459.51,407.33 L459.5,407.27 L459.49,407.22 L459.48,407.17 L459.47,407.13 L459.46,407.09 L459.46,407.05 L459.46,407.02 L459.46,407 C459.46,406.11,460.16,405.65,460.89,405.65 C461.5,405.65,462.39,406.04,462.74,407.04 C462.8,407.15,463.39,409.48,463.69,410.73 L464.79,415.21 C465.08,416.31,465.38,417.4,465.63,418.56 C465.83,419.4,466.24,420.84,466.29,421.04 C467.04,422.59,469.68,427.12,474.39,427.12 C476.64,427.12,477.1,425.28,477.1,423.64 C477.1,422.39,476.74,421,476.35,419.5 L474.96,413.71 L473.96,409.93 C473.75,408.93,473.3,407.25,473.3,407 C473.3,406.11,474,405.65,474.75,405.65 C476.3,405.65,476.6,406.9,476.99,408.5 C477.69,411.28,479.54,418.56,479.99,420.5 C480.13,421.15,482.77,427.12,488.21,427.12 C490.35,427.12,490.89,425.43,490.89,423.64 C490.89,420.79,488.8,415.12,487.8,412.48 C487.35,411.28,487.16,410.73,487.16,409.73 C487.16,407.4,488.89,405.65,491.24,405.65 C495.93,405.65,497.77,412.92,497.77,413.32 C497.77,413.82,497.32,413.82,497.18,413.82 C496.68,413.82,496.68,413.67,496.43,412.92 C495.68,410.28,494.08,406.75,491.35,406.75 C490.49,406.75,490.14,407.25,490.14,408.39 C490.14,409.64,490.6,410.84,491.04,411.93 C491.99,414.51,494.08,420.04,494.08,422.89 C494.08,426.12,492.08,428.21,488.35,428.21 C484.61,428.21,482.08,426.03,480.24,423.39 C480.18,424.04,480.04,425.73,478.63,426.92 C477.39,427.96,475.8,428.21,474.55,428.21 C470.07,428.21,467.63,425.03,466.79,423.89 C466.54,426.73,464.44,428.21,462.19,428.21 C459.91,428.21,458.96,426.28,458.5,425.39 C457.61,423.64,456.96,420.7,456.96,420.54 C456.96,420.04,457.46,420.04,457.57,420.04 C458.07,420.04,458.11,420.11,458.41,421.2 C459.25,424.73,460.25,427.12,462.05,427.12 C462.85,427.12,463.6,426.73,463.6,424.84 C463.6,423.79,463.44,423.23,462.8,420.65 Z " /></g>    </g>
  </g>
</svg>
